<?xml version="1.0" encoding="iso-8859-1"?>
<!-- Generator: Adobe Illustrator 19.0.0, SVG Export Plug-In . SVG Version: 6.00 Build 0)  -->
<svg version="1.1" id="Layer_1" xmlns="http://www.w3.org/2000/svg" xmlns:xlink="http://www.w3.org/1999/xlink" x="0px" y="0px"
	 viewBox="0 0 512 512" style="enable-background:new 0 0 512 512;" xml:space="preserve">
<g>
	<g>
		<path d="M465.44,0H46.56C20.896,0,0,20.896,0,46.56v418.88C0,491.104,20.896,512,46.56,512h418.88
			c25.664,0,46.56-20.896,46.56-46.56V46.56C512,20.896,491.104,0,465.44,0z M480,465.44c0,8.032-6.528,14.56-14.56,14.56H46.56
			C38.528,480,32,473.472,32,465.44V46.56C32,38.528,38.528,32,46.56,32h418.88c8.032,0,14.56,6.528,14.56,14.56V465.44z"/>
	</g>
</g>
<g>
	<g>
		<path d="M344,256c-8.832,0-16,7.152-16,16v208H184V272c0-8.848-7.168-16-16-16c-8.832,0-16,7.152-16,16v224
			c0,8.848,7.168,16,16,16h176c8.832,0,16-7.152,16-16V272C360,263.152,352.832,256,344,256z"/>
	</g>
</g>
<g>
	<g>
		<path d="M208,0c-8.832,0-16,7.152-16,16v233.216c0,3.616-2.352,6.784-5.056,6.784H151.04c-3.28,0-7.04-3.616-7.04-6.784V16
			c0-8.848-7.168-16-16-16c-8.832,0-16,7.152-16,16v233.216C112,269.872,130.256,288,151.04,288h35.92
			c20.416,0,37.04-17.392,37.04-38.784V16C224,7.152,216.832,0,208,0z"/>
	</g>
</g>
<g>
	<g>
		<path d="M384,0c-8.832,0-16,7.152-16,16v233.216c0,3.6-3.664,6.784-6.544,6.784h-35.904c-2.864,0-5.552-3.296-5.552-6.784V16
			c0-8.848-7.168-16-16-16c-8.832,0-16,7.152-16,16v233.216C288,270.608,304.848,288,325.552,288h35.904
			C382.352,288,400,270.24,400,249.216V16C400,7.152,392.832,0,384,0z"/>
	</g>
</g>
<g>
</g>
<g>
</g>
<g>
</g>
<g>
</g>
<g>
</g>
<g>
</g>
<g>
</g>
<g>
</g>
<g>
</g>
<g>
</g>
<g>
</g>
<g>
</g>
<g>
</g>
<g>
</g>
<g>
</g>
</svg>
